<svg xmlns="http://www.w3.org/2000/svg" version="1.1" xmlns:xlink="http://www.w3.org/1999/xlink" xmlns:svgjs="http://svgjs.dev/svgjs" width="1440" height="560" preserveAspectRatio="none" viewBox="0 0 1440 560"><g mask="url(&quot;#SvgjsMask1000&quot;)" fill="none"><rect width="1440" height="560" x="0" y="0" fill="#0e2a47"></rect><path d="M426 538L425 306" stroke-width="10" stroke="url(&quot;#SvgjsLinearGradient1001&quot;)" stroke-linecap="round" class="Up"></path><path d="M1359 121L1358 508" stroke-width="6" stroke="url(&quot;#SvgjsLinearGradient1002&quot;)" stroke-linecap="round" class="Down"></path><path d="M571 477L570 229" stroke-width="6" stroke="url(&quot;#SvgjsLinearGradient1002&quot;)" stroke-linecap="round" class="Down"></path><path d="M151 222L150 -73" stroke-width="6" stroke="url(&quot;#SvgjsLinearGradient1002&quot;)" stroke-linecap="round" class="Down"></path><path d="M195 446L194 58" stroke-width="8" stroke="url(&quot;#SvgjsLinearGradient1001&quot;)" stroke-linecap="round" class="Up"></path><path d="M274 438L273 743" stroke-width="6" stroke="url(&quot;#SvgjsLinearGradient1002&quot;)" stroke-linecap="round" class="Down"></path><path d="M812 93L811 -88" stroke-width="8" stroke="url(&quot;#SvgjsLinearGradient1001&quot;)" stroke-linecap="round" class="Up"></path><path d="M245 531L244 254" stroke-width="6" stroke="url(&quot;#SvgjsLinearGradient1002&quot;)" stroke-linecap="round" class="Down"></path><path d="M1089 308L1088 649" stroke-width="10" stroke="url(&quot;#SvgjsLinearGradient1002&quot;)" stroke-linecap="round" class="Down"></path><path d="M409 66L408 289" stroke-width="10" stroke="url(&quot;#SvgjsLinearGradient1002&quot;)" stroke-linecap="round" class="Down"></path><path d="M355 156L354 315" stroke-width="10" stroke="url(&quot;#SvgjsLinearGradient1001&quot;)" stroke-linecap="round" class="Up"></path><path d="M1167 177L1166 -121" stroke-width="8" stroke="url(&quot;#SvgjsLinearGradient1002&quot;)" stroke-linecap="round" class="Down"></path><path d="M884 318L883 48" stroke-width="8" stroke="url(&quot;#SvgjsLinearGradient1001&quot;)" stroke-linecap="round" class="Up"></path><path d="M691 89L690 -66" stroke-width="8" stroke="url(&quot;#SvgjsLinearGradient1002&quot;)" stroke-linecap="round" class="Down"></path><path d="M1165 246L1164 -101" stroke-width="8" stroke="url(&quot;#SvgjsLinearGradient1001&quot;)" stroke-linecap="round" class="Up"></path><path d="M472 121L471 -131" stroke-width="8" stroke="url(&quot;#SvgjsLinearGradient1002&quot;)" stroke-linecap="round" class="Down"></path><path d="M634 262L633 -31" stroke-width="6" stroke="url(&quot;#SvgjsLinearGradient1002&quot;)" stroke-linecap="round" class="Down"></path><path d="M771 199L770 -207" stroke-width="10" stroke="url(&quot;#SvgjsLinearGradient1001&quot;)" stroke-linecap="round" class="Up"></path><path d="M717 140L716 -233" stroke-width="10" stroke="url(&quot;#SvgjsLinearGradient1002&quot;)" stroke-linecap="round" class="Down"></path><path d="M891 54L890 396" stroke-width="6" stroke="url(&quot;#SvgjsLinearGradient1001&quot;)" stroke-linecap="round" class="Up"></path><path d="M1237 360L1236 690" stroke-width="6" stroke="url(&quot;#SvgjsLinearGradient1002&quot;)" stroke-linecap="round" class="Down"></path><path d="M283 375L282 783" stroke-width="10" stroke="url(&quot;#SvgjsLinearGradient1001&quot;)" stroke-linecap="round" class="Up"></path><path d="M812 210L811 407" stroke-width="8" stroke="url(&quot;#SvgjsLinearGradient1001&quot;)" stroke-linecap="round" class="Up"></path><path d="M152 516L151 284" stroke-width="6" stroke="url(&quot;#SvgjsLinearGradient1001&quot;)" stroke-linecap="round" class="Up"></path><path d="M1084 348L1083 750" stroke-width="8" stroke="url(&quot;#SvgjsLinearGradient1002&quot;)" stroke-linecap="round" class="Down"></path><path d="M690 469L689 157" stroke-width="8" stroke="url(&quot;#SvgjsLinearGradient1001&quot;)" stroke-linecap="round" class="Up"></path><path d="M766 192L765 -224" stroke-width="6" stroke="url(&quot;#SvgjsLinearGradient1001&quot;)" stroke-linecap="round" class="Up"></path><path d="M97 329L96 600" stroke-width="10" stroke="url(&quot;#SvgjsLinearGradient1001&quot;)" stroke-linecap="round" class="Up"></path><path d="M1198 63L1197 -272" stroke-width="6" stroke="url(&quot;#SvgjsLinearGradient1002&quot;)" stroke-linecap="round" class="Down"></path><path d="M199 75L198 277" stroke-width="8" stroke="url(&quot;#SvgjsLinearGradient1001&quot;)" stroke-linecap="round" class="Up"></path><path d="M719 63L718 -145" stroke-width="10" stroke="url(&quot;#SvgjsLinearGradient1002&quot;)" stroke-linecap="round" class="Down"></path><path d="M837 382L836 536" stroke-width="6" stroke="url(&quot;#SvgjsLinearGradient1002&quot;)" stroke-linecap="round" class="Down"></path><path d="M1386 471L1385 212" stroke-width="10" stroke="url(&quot;#SvgjsLinearGradient1002&quot;)" stroke-linecap="round" class="Down"></path><path d="M892 458L891 39" stroke-width="10" stroke="url(&quot;#SvgjsLinearGradient1002&quot;)" stroke-linecap="round" class="Down"></path><path d="M1113 347L1112 611" stroke-width="8" stroke="url(&quot;#SvgjsLinearGradient1002&quot;)" stroke-linecap="round" class="Down"></path><path d="M255 412L254 610" stroke-width="10" stroke="url(&quot;#SvgjsLinearGradient1002&quot;)" stroke-linecap="round" class="Down"></path></g><defs><mask id="SvgjsMask1000"><rect width="1440" height="560" fill="#ffffff"></rect></mask><linearGradient x1="0%" y1="100%" x2="0%" y2="0%" id="SvgjsLinearGradient1001"><stop stop-color="rgba(28, 83, 142, 0)" offset="0"></stop><stop stop-color="#1c538e" offset="1"></stop></linearGradient><linearGradient x1="0%" y1="0%" x2="0%" y2="100%" id="SvgjsLinearGradient1002"><stop stop-color="rgba(28, 83, 142, 0)" offset="0"></stop><stop stop-color="#1c538e" offset="1"></stop></linearGradient></defs></svg>