<svg xmlns="http://www.w3.org/2000/svg" version="1.1" xmlns:xlink="http://www.w3.org/1999/xlink" xmlns:svgjs="http://svgjs.dev/svgjs" width="1440" height="560" preserveAspectRatio="none" viewBox="0 0 1440 560"><g mask="url(&quot;#SvgjsMask1081&quot;)" fill="none"><rect width="1440" height="560" x="0" y="0" fill="rgba(24, 106, 59, 1)"></rect><path d="M0,574.483C104.312,549.905,159.491,440.482,232.907,362.411C288.582,303.206,339.814,244.374,377.925,172.593C418.235,96.668,462.083,19.741,460.472,-66.206C458.754,-157.842,434.971,-256.17,368.699,-319.48C303.811,-381.468,199.673,-362.67,116.051,-395.232C21.498,-432.051,-52.202,-528.426,-153.517,-522.83C-259.176,-516.994,-372.893,-459.343,-421.834,-365.521C-470.542,-272.145,-386.298,-161.829,-396.506,-57.009C-405.991,40.39,-492.92,121.801,-478.721,218.625C-463.027,325.641,-402.835,427.225,-316.03,491.752C-226.831,558.058,-108.182,599.973,0,574.483" fill="#13552f"></path><path d="M1440 948.736C1511.938 955.268 1569.728 895.1379999999999 1633.087 860.4490000000001 1701.75 822.856 1795.951 808.5989999999999 1827.116 736.79 1858.308 664.921 1804.285 586.333 1785.011 510.395 1767.941 443.14 1760.942 373.322 1720.545 316.90700000000004 1677.713 257.092 1620.646 205.80700000000002 1550.661 183.12400000000002 1479.72 160.132 1397.359 155.664 1331.608 190.85000000000002 1268.806 224.45800000000003 1250.687 302.952 1213.368 363.622 1182.608 413.629 1141.75 457.827 1131.796 515.687 1121.687 574.451 1133.472 634.4449999999999 1157.382 689.068 1181.555 744.292 1223.813 786.533 1268.204 827.319 1320.908 875.744 1368.72 942.264 1440 948.736" fill="#1d7f47"></path></g><defs><mask id="SvgjsMask1081"><rect width="1440" height="560" fill="#ffffff"></rect></mask></defs></svg>